<svg width="10" height="13" viewBox="0 0 10 13" fill="none" xmlns="http://www.w3.org/2000/svg">
<path opacity="0.9" d="M5.74419 0.453488C5.74419 0.203036 5.54114 0 5.2907 0C5.04025 0 4.83721 0.203036 4.83721 0.453488V8.03333C4.32344 7.55113 3.63226 7.25581 2.87209 7.25581C1.28588 7.25581 0 8.54166 0 10.1279C0 11.7141 1.28588 13 2.87209 13C4.45833 13 5.74419 11.7141 5.74419 10.1279V3.01902C6.49244 3.94369 7.63644 4.53488 8.9186 4.53488C9.16905 4.53488 9.37209 4.33185 9.37209 4.0814C9.37209 3.83094 9.16905 3.62791 8.9186 3.62791C7.16542 3.62791 5.74419 2.20667 5.74419 0.453488Z" fill="black"/>
</svg>
