<svg width="288" height="42" viewBox="0 0 288 42" fill="none" xmlns="http://www.w3.org/2000/svg">
<path d="M0 0H6.7651V35H0V0ZM10.1477 0H13.5302V35H10.1477V0ZM16.9128 0H20.2953V35H16.9128V0ZM27.0604 0H30.443V35H27.0604V0ZM40.5906 0H43.9732V35H40.5906V0ZM50.7383 0H54.1208V35H50.7383V0ZM33.8255 0H35.5168V35H33.8255V0ZM23.6779 0H25.3691V35H23.6779V0ZM45.6644 0H47.3557V35H45.6644V0ZM0 38.5H3.38255V42H0V38.5ZM10.1477 38.5H13.5302V42H10.1477V38.5ZM16.9128 38.5H20.2953V42H16.9128V38.5ZM33.8255 38.5H37.2081V42H33.8255V38.5ZM50.7383 38.5H54.1208V42H50.7383V38.5ZM40.5906 38.5H47.3557V42H40.5906V38.5ZM23.6779 38.5H30.443V42H23.6779V38.5Z" fill="black"/>
<path d="M57.9863 0H64.7514V35H57.9863V0ZM68.134 0H71.5165V35H68.134V0ZM74.8991 0H78.2816V35H74.8991V0ZM85.0467 0H88.4293V35H85.0467V0ZM98.5769 0H101.959V35H98.5769V0ZM108.725 0H112.107V35H108.725V0ZM91.8118 0H93.5031V35H91.8118V0ZM81.6642 0H83.3555V35H81.6642V0ZM103.651 0H105.342V35H103.651V0ZM57.9863 38.5H61.3689V42H57.9863V38.5ZM68.134 38.5H71.5165V42H68.134V38.5ZM74.8991 38.5H78.2816V42H74.8991V38.5ZM91.8118 38.5H95.1944V42H91.8118V38.5ZM108.725 38.5H112.107V42H108.725V38.5ZM98.5769 38.5H105.342V42H98.5769V38.5ZM81.6642 38.5H88.4293V42H81.6642V38.5Z" fill="black"/>
<path d="M175.891 0H182.656V35H175.891V0ZM186.038 0H189.421V35H186.038V0ZM192.803 0H196.186V35H192.803V0ZM202.951 0H206.334V35H202.951V0ZM216.481 0H219.864V35H216.481V0ZM226.629 0H230.011V35H226.629V0ZM209.716 0H211.407V35H209.716V0ZM199.568 0H201.26V35H199.568V0ZM221.555 0H223.246V35H221.555V0ZM175.891 38.5H179.273V42H175.891V38.5ZM186.038 38.5H189.421V42H186.038V38.5ZM192.803 38.5H196.186V42H192.803V38.5ZM209.716 38.5H213.099V42H209.716V38.5ZM226.629 38.5H230.011V42H226.629V38.5ZM216.481 38.5H223.246V42H216.481V38.5ZM199.568 38.5H206.334V42H199.568V38.5Z" fill="black"/>
<path d="M116.939 0H123.705V35H116.939V0ZM127.087 0H130.47V35H127.087V0ZM133.852 0H137.235V35H133.852V0ZM144 0H147.382V35H144V0ZM157.53 0H160.913V35H157.53V0ZM167.678 0H171.06V35H167.678V0ZM150.765 0H152.456V35H150.765V0ZM140.617 0H142.309V35H140.617V0ZM162.604 0H164.295V35H162.604V0ZM116.939 38.5H120.322V42H116.939V38.5ZM127.087 38.5H130.47V42H127.087V38.5ZM133.852 38.5H137.235V42H133.852V38.5ZM150.765 38.5H154.148V42H150.765V38.5ZM167.678 38.5H171.06V42H167.678V38.5ZM157.53 38.5H164.295V42H157.53V38.5ZM140.617 38.5H147.382V42H140.617V38.5Z" fill="black"/>
<path d="M233.879 0H240.644V35H233.879V0ZM244.027 0H247.409V35H244.027V0ZM250.792 0H254.174V35H250.792V0ZM260.939 0H264.322V35H260.939V0ZM274.47 0H277.852V35H274.47V0ZM284.617 0H288V35H284.617V0ZM267.704 0H269.396V35H267.704V0ZM257.557 0H259.248V35H257.557V0ZM279.543 0H281.235V35H279.543V0ZM233.879 38.5H237.261V42H233.879V38.5ZM244.027 38.5H247.409V42H244.027V38.5ZM250.792 38.5H254.174V42H250.792V38.5ZM267.704 38.5H271.087V42H267.704V38.5ZM284.617 38.5H288V42H284.617V38.5ZM274.47 38.5H281.235V42H274.47V38.5ZM257.557 38.5H264.322V42H257.557V38.5Z" fill="black"/>
</svg>
