<svg width="367" height="2" viewBox="0 0 367 2" fill="none" xmlns="http://www.w3.org/2000/svg">
<mask id="path-1-inside-1_2308_815" fill="white">
<path d="M0 0H367V2H0V0Z"/>
</mask>
<path d="M367 -0.5H364.008V0.5H367V-0.5ZM362.014 -0.5H356.03V0.5H362.014V-0.5ZM354.035 -0.5H348.052V0.5H354.035V-0.5ZM346.057 -0.5H340.073V0.5H346.057V-0.5ZM338.079 -0.5H332.095V0.5H338.079V-0.5ZM330.101 -0.5H324.117V0.5H330.101V-0.5ZM322.122 -0.5H316.139V0.5H322.122V-0.5ZM314.144 -0.5H308.16V0.5H314.144V-0.5ZM306.166 -0.5H300.182V0.5H306.166V-0.5ZM298.188 -0.5H292.204V0.5H298.188V-0.5ZM290.209 -0.5H284.226V0.5H290.209V-0.5ZM282.231 -0.5H276.247V0.5H282.231V-0.5ZM274.253 -0.5H268.269V0.5H274.253V-0.5ZM266.274 -0.5H260.291V0.5H266.274V-0.5ZM258.296 -0.5H252.312V0.5H258.296V-0.5ZM250.318 -0.5H244.334V0.5H250.318V-0.5ZM242.34 -0.5H236.356V0.5H242.34V-0.5ZM234.361 -0.5H228.378V0.5H234.361V-0.5ZM226.383 -0.5H220.399V0.5H226.383V-0.5ZM218.405 -0.5H212.421V0.5H218.405V-0.5ZM210.427 -0.5H204.443V0.5H210.427V-0.5ZM202.448 -0.5H196.465V0.5H202.448V-0.5ZM194.47 -0.5H188.486V0.5H194.47V-0.5ZM186.492 -0.5H180.508V0.5H186.492V-0.5ZM178.514 -0.5H172.53V0.5H178.514V-0.5ZM170.535 -0.5H164.552V0.5H170.535V-0.5ZM162.557 -0.5H156.573V0.5H162.557V-0.5ZM154.579 -0.5H148.595V0.5H154.579V-0.5ZM146.601 -0.5H140.617V0.5H146.601V-0.5ZM138.622 -0.5H132.639V0.5H138.622V-0.5ZM130.644 -0.5H124.66V0.5H130.644V-0.5ZM122.666 -0.5H116.682V0.5H122.666V-0.5ZM114.688 -0.5H108.704V0.5H114.688V-0.5ZM106.709 -0.5H100.726V0.5H106.709V-0.5ZM98.731 -0.5H92.7473V0.5H98.731V-0.5ZM90.7527 -0.5H84.769V0.5H90.7527V-0.5ZM82.7745 -0.5H76.7908V0.5H82.7745V-0.5ZM74.7962 -0.5H68.8125V0.5H74.7962V-0.5ZM66.8179 -0.5H60.8342V0.5H66.8179V-0.5ZM58.8397 -0.5H52.856V0.5H58.8397V-0.5ZM50.8614 -0.5H44.8777V0.5H50.8614V-0.5ZM42.8831 -0.5H36.8994V0.5H42.8831V-0.5ZM34.9048 -0.5H28.9211V0.5H34.9048V-0.5ZM26.9266 -0.5H20.9429V0.5H26.9266V-0.5ZM18.9483 -0.5H12.9646V0.5H18.9483V-0.5ZM10.97 -0.5H4.98632V0.5H10.97V-0.5ZM2.99177 -0.5H0V0.5H2.99177V-0.5ZM367 -1H364.008V1H367V-1ZM362.014 -1H356.03V1H362.014V-1ZM354.035 -1H348.052V1H354.035V-1ZM346.057 -1H340.073V1H346.057V-1ZM338.079 -1H332.095V1H338.079V-1ZM330.101 -1H324.117V1H330.101V-1ZM322.122 -1H316.139V1H322.122V-1ZM314.144 -1H308.16V1H314.144V-1ZM306.166 -1H300.182V1H306.166V-1ZM298.188 -1H292.204V1H298.188V-1ZM290.209 -1H284.226V1H290.209V-1ZM282.231 -1H276.247V1H282.231V-1ZM274.253 -1H268.269V1H274.253V-1ZM266.274 -1H260.291V1H266.274V-1ZM258.296 -1H252.312V1H258.296V-1ZM250.318 -1H244.334V1H250.318V-1ZM242.34 -1H236.356V1H242.34V-1ZM234.361 -1H228.378V1H234.361V-1ZM226.383 -1H220.399V1H226.383V-1ZM218.405 -1H212.421V1H218.405V-1ZM210.427 -1H204.443V1H210.427V-1ZM202.448 -1H196.465V1H202.448V-1ZM194.47 -1H188.486V1H194.47V-1ZM186.492 -1H180.508V1H186.492V-1ZM178.514 -1H172.53V1H178.514V-1ZM170.535 -1H164.552V1H170.535V-1ZM162.557 -1H156.573V1H162.557V-1ZM154.579 -1H148.595V1H154.579V-1ZM146.601 -1H140.617V1H146.601V-1ZM138.622 -1H132.639V1H138.622V-1ZM130.644 -1H124.66V1H130.644V-1ZM122.666 -1H116.682V1H122.666V-1ZM114.688 -1H108.704V1H114.688V-1ZM106.709 -1H100.726V1H106.709V-1ZM98.731 -1H92.7473V1H98.731V-1ZM90.7527 -1H84.769V1H90.7527V-1ZM82.7745 -1H76.7908V1H82.7745V-1ZM74.7962 -1H68.8125V1H74.7962V-1ZM66.8179 -1H60.8342V1H66.8179V-1ZM58.8397 -1H52.856V1H58.8397V-1ZM50.8614 -1H44.8777V1H50.8614V-1ZM42.8831 -1H36.8994V1H42.8831V-1ZM34.9048 -1H28.9211V1H34.9048V-1ZM26.9266 -1H20.9429V1H26.9266V-1ZM18.9483 -1H12.9646V1H18.9483V-1ZM10.97 -1H4.98632V1H10.97V-1ZM2.99177 -1H0V1H2.99177V-1Z" fill="#3E3F40" mask="url(#path-1-inside-1_2308_815)"/>
</svg>
