<svg width="150" height="22" viewBox="0 0 150 22" fill="none" xmlns="http://www.w3.org/2000/svg">
<path opacity="0.84" d="M12.034 1.79782C8.32199 1.79782 5.41933 8.99864 5.41933 13.855C5.41933 17.288 6.84275 19.0463 9.32675 19.0463C11.3642 19.0463 13.0946 17.902 14.7134 15.3063L14.8809 15.3342C13.3179 19.1021 10.5548 21.2791 6.89857 21.2791C2.68414 21.2791 0.0605856 18.2927 0.0605856 14.0225C0.0605856 7.32403 5.02859 1.18379 11.5317 1.18379C13.7645 1.18379 14.7692 2.0211 15.7182 2.0211C16.3601 2.0211 16.8346 1.742 17.4207 1.23962L16.0252 7.99387H15.9694C15.467 4.53301 14.4622 1.79782 12.034 1.79782ZM15.6275 15.8087C15.6275 11.064 19.3395 6.90538 24.1401 6.90538C27.2381 6.90538 29.6942 8.887 29.6942 12.3758C29.6942 17.1205 25.9821 21.2791 21.1537 21.2791C18.0557 21.2791 15.6275 19.2975 15.6275 15.8087ZM25.3123 9.55684C25.3123 8.21715 25.0053 7.37985 24.168 7.37985C22.8841 7.37985 21.8235 9.80803 20.8746 13.5201C20.3164 15.7529 20.0094 17.4833 20.0094 18.6276C20.0094 19.9673 20.3164 20.8046 21.1537 20.8046C22.4096 20.8046 23.4981 18.3764 24.4192 14.6644C24.9774 12.4316 25.3123 10.7012 25.3123 9.55684ZM36.1783 13.4643L34.3083 21H29.5915L32.2709 10.1988C32.4662 9.4452 32.55 8.97073 32.55 8.60789C32.55 7.99387 32.2988 7.65895 31.7685 7.2403V7.18448H37.7412L36.7923 11.0082C38.0203 8.52416 39.695 6.90538 41.9557 6.90538C43.9652 6.90538 44.8025 8.18924 44.8025 9.83594C44.8025 10.3383 44.7188 10.8965 44.5792 11.4268L42.8767 18.3206C42.8209 18.516 42.793 18.6835 42.793 18.8509C42.793 19.437 43.1279 19.772 43.6861 19.772C43.9931 19.772 44.356 19.6882 44.8025 19.4649V19.5208C43.714 20.8325 42.4022 21.2791 41.1463 21.2791C39.1647 21.2791 38.2157 20.1069 38.2157 18.5718C38.2157 18.209 38.2715 17.8462 38.3553 17.4833L39.9182 11.2873C40.002 10.8965 40.0857 10.5058 40.0857 10.2267C40.0857 9.69639 39.8624 9.33356 39.2205 9.33356C38.1599 9.33356 36.876 10.7012 36.1783 13.4643ZM54.2508 6.90538C56.4836 6.90538 57.9907 8.04969 57.9907 9.91967C57.9907 11.6501 56.651 12.7665 55.0881 12.7665C54.1391 12.7665 53.1623 12.2083 53.0785 11.1756C53.2181 11.2594 53.4414 11.2873 53.6367 11.2873C54.6973 11.2873 55.423 10.115 55.423 8.80327C55.423 7.96596 55.1439 7.37985 54.3903 7.37985C52.4366 7.37985 50.148 11.9571 50.148 15.5854C50.148 18.0415 51.2923 19.2417 52.9111 19.2417C54.3903 19.2417 55.3392 18.5718 56.3161 17.1763H56.4836C55.4509 19.8557 53.3297 21.2791 50.6783 21.2791C47.6919 21.2791 45.4591 19.2975 45.4591 15.8645C45.4591 11.2594 49.2269 6.90538 54.2508 6.90538ZM62.8019 21.2791C59.676 21.2791 57.499 19.3254 57.499 15.9204C57.499 11.3989 61.3506 6.87746 66.3744 6.87746C68.8584 6.87746 70.3098 8.10551 70.3098 9.83594C70.3098 12.934 66.7373 14.1899 62.2996 14.3295C62.2437 14.8319 62.1879 15.3063 62.1879 15.7808C62.1879 18.1532 63.416 19.2417 65.0906 19.2417C66.514 19.2417 67.5746 18.6276 68.7189 17.2321H68.8584C67.6304 19.8836 65.5371 21.2791 62.8019 21.2791ZM66.2907 7.37985C64.8115 7.37985 62.9415 10.8128 62.3554 13.9666C65.1464 13.4363 67.0164 10.8686 67.0164 8.44043C67.0164 7.77059 66.7931 7.37985 66.2907 7.37985ZM78.9096 12.2362C79.6073 12.1525 80.1655 11.5664 80.1655 10.6732C80.1655 9.97549 79.7748 9.52893 79.0491 9.52893C77.7653 9.52893 76.593 11.2873 75.9232 13.8271L74.1369 21H69.4201L72.0995 10.1988C72.2949 9.4452 72.3786 8.97073 72.3786 8.60789C72.3786 7.99387 72.1274 7.65895 71.5971 7.2403V7.18448H77.5699L76.5651 11.2594C77.5978 8.94282 78.9096 6.90538 80.9749 6.90538C82.4542 6.90538 83.431 7.91014 83.431 9.33356C83.431 11.371 81.8681 12.627 80.2214 12.627C79.5794 12.627 79.105 12.4037 78.9096 12.2362ZM89.8214 7.88223L87.4211 17.7066C87.3653 17.902 87.3374 18.0694 87.3374 18.2369C87.3374 19.0742 87.8956 19.5487 88.677 19.5487C89.2632 19.5487 90.0167 19.2417 90.7145 18.5997L90.7424 18.6835C89.5423 20.386 88.0909 21.2791 86.0256 21.2791C83.8207 21.2791 82.6764 20.0511 82.6764 18.2648C82.6764 17.902 82.7322 17.4833 82.8438 17.0926L85.1325 7.88223H83.8765L83.9602 7.5194C86.9745 6.79374 89.1794 5.14704 90.9657 2.32811H91.2169L89.9888 7.18448H93.0589L92.7519 7.88223H89.8214ZM100.4 4.81211L96.5486 20.3022H98.4186C101.907 20.3022 103.694 18.4602 106.652 14.5248H106.708L104.419 21H89.9339V20.9442C91.2736 20.1906 91.6643 19.4929 92.1109 17.6508L95.3205 4.81211C95.5159 4.08645 95.6275 3.52825 95.6275 3.1096C95.6275 2.41184 95.3764 1.99319 94.7902 1.51872V1.4629H102.605V1.51872C101.265 2.27229 100.875 2.97004 100.4 4.81211ZM121.256 12.6828L119.889 18.3206C119.582 19.5766 120.419 20.1627 121.898 19.4649L121.926 19.5208C120.726 20.8046 119.526 21.2791 118.131 21.2791C116.233 21.2791 115.2 20.0511 115.228 18.4044C115.228 18.2369 115.256 18.0415 115.312 17.8462C114.279 19.8278 112.967 21.2512 110.762 21.2512C108.474 21.2512 106.994 19.4091 106.994 16.6181C106.994 11.678 110.539 6.90538 114.865 6.90538C116.847 6.90538 117.991 7.93805 118.465 9.50102C119.61 8.02178 121.089 7.2403 122.875 6.93329C122.261 8.60789 121.759 10.6732 121.256 12.6828ZM113.023 19.2975C114.167 19.2975 115.284 17.7066 115.842 15.5575L116.791 11.8734C117.042 10.9244 117.182 10.143 117.182 9.55684C117.182 8.41252 116.679 7.82641 115.926 7.82641C113.832 7.82641 111.795 14.0504 111.795 17.288C111.795 18.5997 112.186 19.2975 113.023 19.2975ZM131.933 0.0952998L129.365 10.3662C130.398 8.38461 131.877 6.90538 134.026 6.90538C136.426 6.90538 137.794 8.80327 137.794 11.6222C137.766 16.5065 134.556 21.2791 130.147 21.2791C128.221 21.2791 126.686 20.2743 126.211 18.5997C125.151 20.1348 123.476 20.9721 121.773 21.2233C122.387 19.5208 122.862 17.5391 123.42 15.3063L126.462 3.1096C126.658 2.41184 126.741 1.93737 126.741 1.57454C126.741 0.904694 126.434 0.569771 125.848 0.151119V0.0952998H131.933ZM132.993 10.9523C132.993 9.66848 132.631 8.91491 131.737 8.91491C130.565 8.91491 129.365 10.4221 128.807 12.6549L127.942 16.1995C127.718 17.0926 127.607 17.8182 127.607 18.4044C127.607 19.7161 128.165 20.3022 128.946 20.3022C131.123 20.3022 132.993 14.3574 132.993 10.9523ZM139.257 11.8734C139.257 9.13819 141.909 6.90538 145.23 6.90538C147.854 6.90538 149.612 7.91014 149.612 9.52893C149.612 10.6453 148.719 11.3431 147.574 11.3431C146.905 11.3431 146.235 11.0919 145.9 10.6453C146.542 10.5337 146.905 9.83594 146.905 9.05446C146.905 8.0776 146.291 7.37985 144.979 7.37985C143.667 7.37985 142.634 8.21715 142.634 9.41729C142.634 10.3662 143.22 10.8965 144.839 11.8455C147.519 13.3526 148.635 14.2457 148.635 16.2553C148.635 19.13 145.872 21.2791 142.272 21.2791C139.118 21.2791 137.164 19.9394 137.164 18.209C137.164 16.953 138.141 16.2274 139.369 16.2274C140.039 16.2553 140.653 16.5065 141.071 16.9251C140.429 16.953 139.955 17.5671 139.955 18.4881C139.955 19.8278 140.932 20.8046 142.523 20.8046C144.03 20.8046 145.118 19.9673 145.118 18.6835C145.118 17.6787 144.448 17.0088 142.69 16.0878C140.485 14.9156 139.257 13.855 139.257 11.8734Z" fill="url(#paint0_linear_1219_5571)"/>
<defs>
<linearGradient id="paint0_linear_1219_5571" x1="3.06107" y1="4.25001" x2="155.654" y2="17.5219" gradientUnits="userSpaceOnUse">
<stop stop-color="white"/>
<stop offset="1" stop-color="#FFD8FB" stop-opacity="0.74"/>
</linearGradient>
</defs>
</svg>
